<?xml version="1.0" encoding="UTF-8"?>
<svg id="Layer_1" xmlns="http://www.w3.org/2000/svg" version="1.1" viewBox="0 0 629.6 665.5">
  <!-- Generator: Adobe Illustrator 29.6.0, SVG Export Plug-In . SVG Version: 2.1.1 Build 207)  -->
  <defs>
    <style>
      .st0 {
        fill: #1f3032;
      }

      .st1 {
        fill: #c3f991;
      }

      .st2 {
        fill: #f8ffe3;
      }
    </style>
  </defs>
  <rect class="st2" x="-.6" width="630.2" height="665.5"/>
  <g>
    <g>
      <g>
        <path class="st0" d="M122.9,544.2c-1.2-1.2-2.1-2.6-2.6-4.2-.2-.7-.3-1.2-.1-1.5.2-.3.5-.8,1.1-1.4.7-.7,1.3-1.5,1.7-2.3.4-.8.6-2,.6-3.6v-69.6h14v71h35.8v12.1h-41.9c-1.1.8-2.6,1.2-4.4,1.2s-2.9-.6-4.1-1.8Z"/>
        <path class="st0" d="M184.4,476.1c-1.8-1.7-2.7-3.9-2.7-6.5s.9-4.9,2.7-6.6c1.8-1.7,4.1-2.6,6.9-2.6s5.1.9,6.9,2.6c1.8,1.7,2.7,3.9,2.7,6.6s-.9,4.8-2.7,6.5c-1.8,1.7-4.1,2.6-6.9,2.6s-5.1-.9-6.9-2.6ZM184.4,487.2h13.8v57.6h-13.8v-57.6Z"/>
        <path class="st0" d="M209.5,541.6c1-1.7,1.8-3.5,2.3-5.4.5-1.9.7-4.3.7-7.2v-71.4h13.8v36.1c2.1-2.3,4.8-4.2,7.8-5.6s6.4-2.1,10-2.1c8,0,14.3,2.7,18.8,8,4.6,5.3,6.8,12.6,6.8,22s-1.1,11-3.4,15.6c-2.3,4.6-5.4,8.2-9.4,10.7-4,2.5-8.5,3.8-13.5,3.8-7.9,0-14.2-3.1-18.8-9.4-.2,3.8-1.5,7-3.9,9.5l-11.3-4.5ZM252.2,529.8c2.5-3.4,3.7-8.1,3.7-13.8s-1.2-10.8-3.7-14c-2.5-3.2-6.2-4.9-11.2-4.9s-8.5,1.7-11.1,5.2c-2.7,3.4-4,7.5-4,12.3v3.1c0,5.1,1.3,9.2,4,12.5,2.7,3.2,6.5,4.9,11.4,4.9s8.3-1.7,10.8-5.2Z"/>
        <path class="st0" d="M290.7,542.4c-4.5-2.4-8-5.9-10.4-10.3-2.4-4.5-3.6-9.7-3.6-15.6s1-11,3.1-15.6c2.1-4.6,5.3-8.2,9.6-10.9,4.3-2.7,9.5-4,15.6-4s11.3,1.3,15.6,4c4.3,2.7,7.5,6.1,9.7,10.5,2.1,4.3,3.2,9,3.2,14s-.8,4.2-2.3,5.5c-1.5,1.3-3.7,1.9-6.4,1.9h-34.3c0,3.9,1.5,7,4.5,9.4,3,2.4,6.9,3.6,11.8,3.6s12.2-2,16.4-6.1l6.9,7.5c-2.5,3.1-5.8,5.5-9.8,7.2-4,1.7-8.5,2.6-13.5,2.6s-11.5-1.2-16-3.6ZM319.8,510.8c0-4-1.4-7.2-4.1-9.9s-6.3-3.9-10.8-3.9-7.8,1.3-10.5,4c-2.7,2.7-4,5.9-4,9.8h29.3ZM309.9,456.8h15.6l-14.3,22.1h-11.3l10-22.1Z"/>
        <path class="st0" d="M341.8,457.6h13.8v87.2h-13.8v-87.2Z"/>
        <path class="st0" d="M370.8,539.4c-4.1-4.4-6.1-10.3-6.1-17.7v-34.6h13.8v34.6c0,4.4,1,7.6,3,9.7,2,2.1,5,3.2,9.1,3.2s7.4-1.5,9.6-4.5c2.2-3,3.3-6.8,3.3-11.3v-31.7h13.8v42.1c0,2.5.2,4.7.5,6.5.4,1.8,1,3.6,2.1,5.5l-12.2,4.8c-.7-1.1-1.4-2.6-2-4.4-.6-1.8-.9-3.5-1-5-4,6.3-9.9,9.4-17.7,9.4s-12.1-2.2-16.2-6.5Z"/>
        <path class="st0" d="M428.2,457.6h13.8v87.2h-13.8v-87.2Z"/>
        <path class="st0" d="M462.5,542.4c-3.8-2.4-6.8-5.8-9-10.2-2.1-4.4-3.2-9.5-3.2-15.4s1.1-11.7,3.3-16.3c2.2-4.6,5.3-8.2,9.3-10.8,4-2.5,8.8-3.8,14.3-3.8s12.4,2.7,16.7,8v-6.8h13.3v41.9c0,2.9.2,5.2.7,7.1.4,1.9,1.2,3.7,2.2,5.4l-11.2,4.4c-2.2-2.5-3.5-5.5-3.8-9.3h-.4c-2.2,2.9-4.9,5.2-8.1,6.8-3.2,1.6-6.8,2.4-10.8,2.4s-9.5-1.2-13.4-3.6ZM489.8,530.2c2.6-3.2,3.9-7.4,3.9-12.6v-3.1c0-4.8-1.3-8.8-3.9-12.3-2.6-3.4-6.2-5.2-11-5.2s-8.3,1.7-10.8,5.2c-2.5,3.5-3.8,8.4-3.8,14.6s1.2,10.1,3.7,13.3c2.5,3.2,6,4.8,10.6,4.8s8.7-1.6,11.3-4.8Z"/>
      </g>
      <g>
        <g>
          <path class="st0" d="M121.6,417.3c1-1.7,2.3-3,4-4,1.7-1,3.6-1.4,5.6-1.4s4.4.6,6.2,1.7c1.8,1.1,3.1,2.8,3.9,4.9h-4.3c-.6-1.2-1.3-2-2.4-2.6-1-.6-2.2-.8-3.5-.8s-2.7.3-3.9,1c-1.1.6-2,1.6-2.7,2.8-.6,1.2-1,2.6-1,4.2s.3,3,1,4.2c.6,1.2,1.5,2.2,2.7,2.8,1.1.7,2.4,1,3.9,1s2.5-.3,3.5-.8c1-.6,1.8-1.4,2.4-2.6h4.3c-.8,2.1-2.1,3.7-3.9,4.8-1.8,1.1-3.9,1.7-6.2,1.7s-3.9-.5-5.6-1.4c-1.7-1-3-2.3-4-4-1-1.7-1.5-3.6-1.5-5.7s.5-4,1.5-5.7Z"/>
          <path class="st0" d="M149.2,410.8v23.2h-3.6v-23.2h3.6Z"/>
          <path class="st0" d="M158.9,412.1l-6.9,3.4v-2.6l6.9-3.8v3ZM157.5,416.7v17.3h-3.6v-17.3h3.6Z"/>
          <path class="st0" d="M174.5,417.3c1.1.6,1.9,1.4,2.5,2.5.6,1.1.9,2.4.9,4v10.2h-3.5v-9.7c0-1.5-.4-2.7-1.2-3.6-.8-.8-1.8-1.2-3.2-1.2s-2.4.4-3.2,1.2c-.8.8-1.2,2-1.2,3.6v9.7h-3.6v-17.3h3.6v2c.6-.7,1.3-1.3,2.2-1.7.9-.4,1.9-.6,2.9-.6s2.6.3,3.7.8Z"/>
          <path class="st0" d="M182.7,413.8c-.4-.4-.7-1-.7-1.6s.2-1.2.7-1.6c.4-.4,1-.7,1.6-.7s1.2.2,1.6.7c.4.4.7,1,.7,1.6s-.2,1.2-.7,1.6c-.4.4-1,.7-1.6.7s-1.2-.2-1.6-.7ZM186.1,416.7v17.3h-3.6v-17.3h3.6Z"/>
          <path class="st0" d="M190.7,420.7c.7-1.3,1.7-2.4,3-3.1,1.3-.7,2.7-1.1,4.4-1.1s3.8.5,5.2,1.5c1.4,1,2.3,2.4,2.8,4.3h-3.9c-.3-.9-.8-1.5-1.5-2-.7-.5-1.6-.7-2.6-.7s-2.6.5-3.5,1.6c-.9,1-1.3,2.5-1.3,4.3s.4,3.3,1.3,4.4c.9,1,2,1.6,3.5,1.6,2.1,0,3.4-.9,4.1-2.7h3.9c-.5,1.8-1.4,3.2-2.8,4.2-1.4,1-3.1,1.6-5.1,1.6s-3.1-.4-4.4-1.1c-1.3-.7-2.3-1.8-3-3.1s-1.1-2.9-1.1-4.7.4-3.3,1.1-4.7Z"/>
          <path class="st0" d="M209.5,420.7c.7-1.3,1.7-2.4,3-3.1,1.2-.7,2.6-1.1,4.1-1.1s2.5.3,3.6.8c1,.5,1.8,1.2,2.4,2v-2.5h3.6v17.3h-3.6v-2.6c-.6.8-1.4,1.5-2.5,2-1,.5-2.2.8-3.6.8s-2.8-.4-4.1-1.1c-1.2-.8-2.2-1.8-2.9-3.2-.7-1.4-1.1-2.9-1.1-4.7s.4-3.3,1.1-4.6ZM221.9,422.2c-.5-.9-1.1-1.5-1.9-2-.8-.5-1.7-.7-2.6-.7s-1.8.2-2.6.7c-.8.5-1.4,1.1-1.9,2-.5.9-.7,1.9-.7,3.1s.2,2.2.7,3.1c.5.9,1.1,1.6,1.9,2.1.8.5,1.7.7,2.6.7s1.8-.2,2.6-.7c.8-.5,1.4-1.1,1.9-2,.5-.9.7-1.9.7-3.1s-.2-2.2-.7-3.1Z"/>
        </g>
        <g>
          <path class="st0" d="M266.8,412.2v21.8h-3.6v-14.9l-6.7,14.9h-2.5l-6.7-14.9v14.9h-3.6v-21.8h3.9l7.7,17.1,7.6-17.1h3.8Z"/>
          <path class="st0" d="M287.2,416.7v17.3h-3.6v-2c-.6.7-1.3,1.3-2.2,1.7-.9.4-1.9.6-2.9.6s-2.6-.3-3.7-.8c-1.1-.6-1.9-1.4-2.5-2.5-.6-1.1-.9-2.4-.9-4v-10.2h3.5v9.6c0,1.5.4,2.7,1.2,3.6.8.8,1.8,1.2,3.2,1.2s2.4-.4,3.2-1.2c.8-.8,1.2-2,1.2-3.6v-9.6h3.6Z"/>
          <path class="st0" d="M295.5,410.8v23.2h-3.6v-23.2h3.6Z"/>
          <path class="st0" d="M304.4,419.6v9.6c0,.6.2,1.1.5,1.4.3.3.8.4,1.6.4h2.2v3h-2.8c-1.6,0-2.8-.4-3.7-1.1-.9-.8-1.3-2-1.3-3.7v-9.6h-2v-2.9h2v-4.3h3.6v4.3h4.2v2.9h-4.2Z"/>
          <path class="st0" d="M312.1,413.8c-.4-.4-.7-1-.7-1.6s.2-1.2.7-1.6c.4-.4,1-.7,1.6-.7s1.2.2,1.6.7c.4.4.7,1,.7,1.6s-.2,1.2-.7,1.6c-.4.4-1,.7-1.6.7s-1.2-.2-1.6-.7ZM315.5,416.7v17.3h-3.6v-17.3h3.6Z"/>
          <path class="st0" d="M320.1,420.7c.7-1.3,1.7-2.4,3-3.1,1.2-.7,2.6-1.1,4.2-1.1s2.2.2,3.3.7c1.1.5,2,1.1,2.6,2v-8.4h3.6v23.2h-3.6v-2.6c-.6.8-1.4,1.5-2.4,2.1-1,.5-2.2.8-3.6.8s-2.9-.4-4.1-1.1c-1.2-.8-2.2-1.8-3-3.2-.7-1.4-1.1-2.9-1.1-4.7s.4-3.3,1.1-4.6ZM332.4,422.2c-.5-.9-1.1-1.5-1.9-2-.8-.5-1.7-.7-2.6-.7s-1.8.2-2.6.7c-.8.5-1.4,1.1-1.9,2-.5.9-.7,1.9-.7,3.1s.2,2.2.7,3.1c.5.9,1.1,1.6,1.9,2.1.8.5,1.7.7,2.6.7s1.8-.2,2.6-.7c.8-.5,1.4-1.1,1.9-2,.5-.9.7-1.9.7-3.1s-.2-2.2-.7-3.1Z"/>
          <path class="st0" d="M341.6,413.8c-.4-.4-.7-1-.7-1.6s.2-1.2.7-1.6c.4-.4,1-.7,1.6-.7s1.2.2,1.6.7c.4.4.7,1,.7,1.6s-.2,1.2-.7,1.6c-.4.4-1,.7-1.6.7s-1.2-.2-1.6-.7ZM345,416.7v17.3h-3.6v-17.3h3.6Z"/>
          <path class="st0" d="M352.4,433.6c-1.1-.5-1.9-1.2-2.6-2-.6-.8-1-1.8-1-2.8h3.7c0,.7.4,1.3,1.1,1.8.6.5,1.4.7,2.4.7s1.8-.2,2.3-.6c.6-.4.8-.9.8-1.5s-.3-1.1-.9-1.4c-.6-.3-1.6-.7-2.9-1-1.3-.4-2.4-.7-3.2-1-.8-.3-1.5-.8-2.1-1.5-.6-.7-.9-1.6-.9-2.7s.3-1.8.8-2.5c.5-.8,1.3-1.4,2.3-1.8,1-.4,2.2-.7,3.5-.7,2,0,3.6.5,4.8,1.5,1.2,1,1.8,2.3,1.9,4.1h-3.6c0-.8-.4-1.4-.9-1.9-.6-.5-1.3-.7-2.3-.7s-1.7.2-2.2.5c-.5.4-.8.8-.8,1.4s.2.8.5,1.2c.3.3.7.6,1.2.7.5.2,1.2.4,2.1.7,1.3.3,2.3.7,3.1,1s1.5.9,2.1,1.5c.6.7.9,1.6.9,2.7,0,1-.3,1.9-.8,2.6-.5.8-1.3,1.4-2.3,1.8-1,.4-2.2.7-3.5.7s-2.6-.2-3.7-.7Z"/>
          <path class="st0" d="M366.4,420.7c.7-1.3,1.7-2.4,3-3.1,1.3-.7,2.7-1.1,4.4-1.1s3.8.5,5.2,1.5c1.4,1,2.3,2.4,2.8,4.3h-3.9c-.3-.9-.8-1.5-1.5-2-.7-.5-1.6-.7-2.6-.7s-2.6.5-3.5,1.6c-.9,1-1.3,2.5-1.3,4.3s.4,3.3,1.3,4.4c.9,1,2,1.6,3.5,1.6,2.1,0,3.4-.9,4.1-2.7h3.9c-.5,1.8-1.4,3.2-2.8,4.2-1.4,1-3.1,1.6-5.1,1.6s-3.1-.4-4.4-1.1c-1.3-.7-2.3-1.8-3-3.1s-1.1-2.9-1.1-4.7.4-3.3,1.1-4.7Z"/>
          <path class="st0" d="M385.5,413.8c-.4-.4-.7-1-.7-1.6s.2-1.2.7-1.6c.4-.4,1-.7,1.6-.7s1.2.2,1.6.7c.4.4.7,1,.7,1.6s-.2,1.2-.7,1.6c-.4.4-1,.7-1.6.7s-1.2-.2-1.6-.7ZM388.9,416.7v17.3h-3.6v-17.3h3.6Z"/>
          <path class="st0" d="M399.7,417.3c1-.5,2.2-.8,3.5-.8s2.9.4,4.1,1.1c1.2.7,2.2,1.8,2.9,3.1.7,1.3,1.1,2.9,1.1,4.6s-.4,3.3-1.1,4.7c-.7,1.4-1.7,2.4-2.9,3.2-1.2.8-2.6,1.1-4.1,1.1s-2.5-.3-3.5-.8c-1-.5-1.9-1.2-2.5-2v10.7h-3.6v-25.5h3.6v2.5c.6-.8,1.4-1.5,2.5-2ZM407,422.2c-.5-.9-1.1-1.5-1.9-2-.8-.4-1.7-.7-2.6-.7s-1.8.2-2.6.7c-.8.5-1.5,1.1-1.9,2-.5.9-.7,1.9-.7,3.1s.2,2.2.7,3.1c.5.9,1.1,1.6,1.9,2,.8.5,1.7.7,2.6.7s1.8-.2,2.6-.7c.8-.5,1.5-1.2,1.9-2.1.5-.9.7-1.9.7-3.1s-.2-2.2-.7-3.1Z"/>
          <path class="st0" d="M418.5,410.8v23.2h-3.6v-23.2h3.6Z"/>
          <path class="st0" d="M423.4,413.8c-.4-.4-.7-1-.7-1.6s.2-1.2.7-1.6c.4-.4,1-.7,1.6-.7s1.2.2,1.6.7c.4.4.7,1,.7,1.6s-.2,1.2-.7,1.6c-.4.4-1,.7-1.6.7s-1.2-.2-1.6-.7ZM426.8,416.7v17.3h-3.6v-17.3h3.6Z"/>
          <path class="st0" d="M443.9,417.3c1.1.6,1.9,1.4,2.5,2.5.6,1.1.9,2.4.9,4v10.2h-3.5v-9.7c0-1.5-.4-2.7-1.2-3.6-.8-.8-1.8-1.2-3.2-1.2s-2.4.4-3.2,1.2c-.8.8-1.2,2-1.2,3.6v9.7h-3.6v-17.3h3.6v2c.6-.7,1.3-1.3,2.2-1.7.9-.4,1.9-.6,2.9-.6s2.6.3,3.7.8Z"/>
          <path class="st0" d="M451.8,420.7c.7-1.3,1.7-2.4,3-3.1,1.2-.7,2.6-1.1,4.1-1.1s2.5.3,3.6.8c1,.5,1.8,1.2,2.4,2v-2.5h3.6v17.3h-3.6v-2.6c-.6.8-1.4,1.5-2.5,2-1,.5-2.2.8-3.6.8s-2.8-.4-4.1-1.1c-1.2-.8-2.2-1.8-2.9-3.2-.7-1.4-1.1-2.9-1.1-4.7s.4-3.3,1.1-4.6ZM464.1,422.2c-.5-.9-1.1-1.5-1.9-2-.8-.5-1.7-.7-2.6-.7s-1.8.2-2.6.7c-.8.5-1.4,1.1-1.9,2-.5.9-.7,1.9-.7,3.1s.2,2.2.7,3.1c.5.9,1.1,1.6,1.9,2.1.8.5,1.7.7,2.6.7s1.8-.2,2.6-.7c.8-.5,1.4-1.1,1.9-2,.5-.9.7-1.9.7-3.1s-.2-2.2-.7-3.1Z"/>
          <path class="st0" d="M478.8,417.2c.9-.5,1.9-.7,3.1-.7v3.7h-.9c-1.4,0-2.5.4-3.2,1.1-.7.7-1.1,1.9-1.1,3.7v9.1h-3.6v-17.3h3.6v2.5c.5-.9,1.2-1.6,2.1-2.1Z"/>
          <path class="st0" d="M485.4,413.8c-.4-.4-.7-1-.7-1.6s.2-1.2.7-1.6c.4-.4,1-.7,1.6-.7s1.2.2,1.6.7c.4.4.7,1,.7,1.6s-.2,1.2-.7,1.6c-.4.4-1,.7-1.6.7s-1.2-.2-1.6-.7ZM488.8,416.7v17.3h-3.6v-17.3h3.6Z"/>
          <path class="st0" d="M493.4,420.7c.7-1.3,1.7-2.4,3-3.1,1.2-.7,2.6-1.1,4.1-1.1s2.5.3,3.6.8c1,.5,1.8,1.2,2.4,2v-2.5h3.6v17.3h-3.6v-2.6c-.6.8-1.4,1.5-2.5,2-1,.5-2.2.8-3.6.8s-2.8-.4-4.1-1.1c-1.2-.8-2.2-1.8-2.9-3.2-.7-1.4-1.1-2.9-1.1-4.7s.4-3.3,1.1-4.6ZM505.7,422.2c-.5-.9-1.1-1.5-1.9-2-.8-.5-1.7-.7-2.6-.7s-1.8.2-2.6.7c-.8.5-1.4,1.1-1.9,2-.5.9-.7,1.9-.7,3.1s.2,2.2.7,3.1c.5.9,1.1,1.6,1.9,2.1.8.5,1.7.7,2.6.7s1.8-.2,2.6-.7c.8-.5,1.4-1.1,1.9-2,.5-.9.7-1.9.7-3.1s-.2-2.2-.7-3.1Z"/>
        </g>
      </g>
    </g>
    <g>
      <path class="st0" d="M333.2,121c-114.3-16.9-216,104.9-98.8,168.6,2.4,26.7,24.9,47.7,52.2,47.7,54-2.6,25.5-39.2,95.5-43.3,100.9-17,86.2-153-48.9-173Z"/>
      <path class="st1" d="M384,238.8h0c-3,4.4-9.1,5.5-13.5,2.5l-16-11c-.5-.3-1-.7-1.5-1-1.2-.8-2.7.6-1.8,1.8l15.2,22.1c1.3,1.9.8,4.5-1.1,5.7-4.4,3-10.4,1.9-13.4-2.5l-28-40.7-52.6,52.6c-2.7,2.7-7,2.7-9.7,0-2.7-2.7-2.7-7,0-9.7l52.6-52.6-40.7-28c-4.4-3-5.5-9.1-2.4-13.5,1.3-1.8,3.8-2.2,5.7-1l22.1,15.2c1.2.8,2.7-.6,1.8-1.8-.3-.5-.7-1-1-1.5l-11-16c-3.1-4.4-1.9-10.5,2.6-13.6,1.8-1.2,4.3-.7,5.6,1.1l14.2,20.7c5.6,8.2,11.8,15.9,18.5,23,.4-.9.9-1.7,1.6-2.4,2.9-2.9,4.7,0,7.5,2.9,2.9,2.9,5.8,4.7,2.9,7.5-.7.7-1.5,1.3-2.4,1.6,7.2,6.7,14.9,12.9,23,18.5l20.7,14.2c1.8,1.3,2.3,3.8,1,5.6Z"/>
    </g>
  </g>
</svg>