<?xml version="1.0" encoding="UTF-8"?>
<svg width="400" height="120" viewBox="0 0 400 120" fill="none" xmlns="http://www.w3.org/2000/svg">
  <!-- Logo Mark - Monochrome Black -->
  <g id="logoMark">
    <path d="M50 15L85 35V75L50 95L15 75V35L50 15Z" fill="#1A1A2E"/>
    <path d="M50 30L70 42V68L50 80L30 68V42L50 30Z" fill="none" stroke="#FFFFFF" stroke-width="2"/>
    <circle cx="50" cy="55" r="8" fill="#333333"/>
    <circle cx="50" cy="30" r="3" fill="#333333"/>
    <circle cx="70" cy="42" r="3" fill="#333333"/>
    <circle cx="70" cy="68" r="3" fill="#333333"/>
    <circle cx="50" cy="80" r="3" fill="#333333"/>
    <circle cx="30" cy="68" r="3" fill="#333333"/>
    <circle cx="30" cy="42" r="3" fill="#333333"/>
    <line x1="50" y1="38" x2="50" y2="47" stroke="#FFFFFF" stroke-width="1.5" stroke-linecap="round"/>
    <line x1="50" y1="63" x2="50" y2="72" stroke="#FFFFFF" stroke-width="1.5" stroke-linecap="round"/>
  </g>
  
  <!-- Wordmark - Black -->
  <g id="wordmark">
    <text x="110" y="70" font-family="'Segoe UI', Arial, sans-serif" font-size="48" font-weight="700" fill="#1A1A2E">CFT</text>
    <text x="200" y="70" font-family="'Segoe UI', Arial, sans-serif" font-size="48" font-weight="300" fill="#333333">Services</text>
    <text x="110" y="95" font-family="'Segoe UI', Arial, sans-serif" font-size="14" font-weight="400" letter-spacing="3" fill="#555555">TECHNOLOGY CONSULTING</text>
  </g>
</svg>
