<?xml version="1.0" encoding="UTF-8"?>
<svg width="100" height="100" viewBox="0 0 100 100" fill="none" xmlns="http://www.w3.org/2000/svg">
  <defs>
    <linearGradient id="techGradient" x1="0%" y1="0%" x2="100%" y2="100%">
      <stop offset="0%" stop-color="#0F4C75"/>
      <stop offset="100%" stop-color="#1B6B93"/>
    </linearGradient>
    <linearGradient id="accentGradient" x1="0%" y1="0%" x2="100%" y2="0%">
      <stop offset="0%" stop-color="#3CAEA3"/>
      <stop offset="100%" stop-color="#20E3B2"/>
    </linearGradient>
  </defs>
  
  <!-- Logo Mark - Abstract Circuit/Connection Symbol -->
  <path d="M50 5L95 30V70L50 95L5 70V30L50 5Z" fill="url(#techGradient)"/>
  
  <!-- Inner circuit lines -->
  <path d="M50 22L78 38V62L50 78L22 62V38L50 22Z" fill="none" stroke="#FFFFFF" stroke-width="2.5"/>
  
  <!-- Central node -->
  <circle cx="50" cy="50" r="12" fill="url(#accentGradient)"/>
  
  <!-- Connection points -->
  <circle cx="50" cy="22" r="4" fill="#3CAEA3"/>
  <circle cx="78" cy="38" r="4" fill="#3CAEA3"/>
  <circle cx="78" cy="62" r="4" fill="#3CAEA3"/>
  <circle cx="50" cy="78" r="4" fill="#3CAEA3"/>
  <circle cx="22" cy="62" r="4" fill="#3CAEA3"/>
  <circle cx="22" cy="38" r="4" fill="#3CAEA3"/>
  
  <!-- Data flow lines -->
  <line x1="50" y1="32" x2="50" y2="38" stroke="#FFFFFF" stroke-width="2" stroke-linecap="round"/>
  <line x1="50" y1="62" x2="50" y2="68" stroke="#FFFFFF" stroke-width="2" stroke-linecap="round"/>
</svg>
